<?xml version="1.0" encoding="utf-8"?>
<svg id="Layer_1" data-name="Layer 1" viewBox="0 0 241 262" xmlns="http://www.w3.org/2000/svg" xmlns:bx="https://boxy-svg.com">
  <defs>
    <style>.cls-1{fill:red;}.cls-2{fill:#ffe6e6;fill-rule:evenodd;}</style>
  </defs>
  <g id="Picto" transform="matrix(0.998839, 0, 0, 1.001874, -107.924606, 0)" bx:origin="0 0">
    <path class="cls-2" d="M238.32,221.13h25l-11.08-14.34h-25l11.09,14.34Zm-21-59.44L176.68,109.2h68.94a2.15,2.15,0,0,0,1.53-.66,2.2,2.2,0,0,0,.67-1.54c0-.85,0-1.28,0-2.92a2.27,2.27,0,0,0-.64-1.22,2.15,2.15,0,0,0-1.53-.66H158.94v46.18h-45.1V57.1H245.62a47.37,47.37,0,0,1,47.29,46.39c0,.81,0,2.42,0,3.51a47.47,47.47,0,0,1-27.71,43.05l4.93,6.37c19.88-9.42,31.24-30.8,30.34-52.78,0-.54,0-1.09-.05-1.63a59.6,59.6,0,0,0-3.86-17.93c-8.55-22.21-28.1-34.27-51.64-34.27H114.22V4.71H244.93c39.78,0,73.9,19.48,90.76,56a107.34,107.34,0,0,1,9.64,40.05c.08,1.7,0,.77.06,2.31,1,36-16.24,71.2-47.06,89.76l56.79,73.39H216.3L135.4,161.69Z" transform="translate(-5.79 -4.71)"/>
    <path class="cls-1" d="M234.29,229.33H280l-69.19-89.42-17.42-22.5h52.22A10.48,10.48,0,0,0,256,107c0-.32,0-3.25,0-3.56A10.5,10.5,0,0,0,245.62,94H150.74v46.19H122V65.3H245.62a39.18,39.18,0,0,1,39.09,38.34c0,.25,0,3.11,0,3.36a39.22,39.22,0,0,1-33.27,38.67l16,20.67c27.54-9.38,42.33-36.52,41.23-63,0-.4,0-1.37-.06-1.77C306.82,71,284.5,41.61,244.93,41.61H122.42V12.91H244.93c58.39,0,90.2,43.45,92.2,88.22,0,.54.05,1.65.06,2.18,1,35.32-17.14,71.16-51.31,86.85l34.65,44.77L338.4,258H220.33l-22.21-28.7-23.79-30.74-1.59-2.05-3.2-4.14-17.42-22.51h70.46l22.75,28.7H210.51Z" transform="translate(-5.79 -4.71)"/>
  </g>
</svg>