<?xml version="1.0" encoding="utf-8"?>
<svg viewBox="0 0 230 60" xmlns="http://www.w3.org/2000/svg">
  <g fill="none" fill-rule="evenodd" transform="matrix(0.94958, 0, 0, 0.962556, 1.499979, -0.228281)" style="transform-origin: 0.5px 0.749999px;">
    <path d="M138.899 25.761h-.837v5.23h.837c1.388 0 2.489-1.145 2.489-2.615 0-1.443-1.101-2.615-2.49-2.615m0 8.717h-.836v5.23h-3.352V22.276h4.189c3.23 0 5.84 2.74 5.84 6.1 0 3.387-2.61 6.102-5.84 6.102m14.539-7.072l-1.077 6.201h2.154l-1.077-6.201zm2.105 12.302l-.43-2.614h-3.327l-.479 2.614h-3.375l2.993-17.432h5.026l3.015 17.432h-3.423zm13.937-13.947h-.838v5.23h.839c1.388 0 2.489-1.145 2.489-2.615 0-1.443-1.101-2.615-2.49-2.615zm2.418 13.947l-1.843-5.255c-.095 0-.24 0-.335.025h-1.078v5.23h-3.35V22.276h4.189c3.23 0 5.84 2.74 5.84 6.1a6.374 6.374 0 01-2.178 4.782l2.298 6.55h-3.543zm10.25 0h3.35V22.276h-3.35zm15.155.423c-2.729 0-4.93-2.316-4.93-5.156v-.497h3.352v.497c0 .922.692 1.67 1.578 1.67.958 0 1.628-.698 1.628-1.67 0-.672 0-1.344-2.25-2.39-1.963-.947-4.188-2.39-4.188-5.652 0-2.815 2.178-5.105 4.907-5.105 2.752 0 4.883 2.265 4.883 5.08v.597h-3.352v-.597c0-.897-.67-1.594-1.53-1.594-.84 0-1.557.746-1.557 1.619 0 .647 0 1.395 2.225 2.44 2.083 1.022 4.214 2.439 4.214 5.602 0 2.889-2.179 5.156-4.98 5.156M123.02 21.264c-.535-.493-3.009-2.608-6.548-3.196v.245c2.202.932 5.502 3.387 5.68 9.063.005.17.134.306.296.306a.305.305 0 00.298-.292l.373-5.872a.318.318 0 00-.1-.254M121.9 38.225c-4.601 5.418-14.516 5.456-15.296-6.683-.636-9.403 3.713-12.351 5.754-13.227v-.21c-3.412.56-9.936 3.016-9.936 13.4 0 8.599 6.658 12.774 11.207 12.774 5.098 0 7.613-3.312 8.764-5.71.158-.33-.258-.619-.492-.344m-58.145 5.266c-1.214-.056-2.294-.51-2.294-2.558V20.804a.32.32 0 00-.137-.266l-2.974-2.027c-.234-.159-.522.068-.456.352.078.337.104.713.104 1.2v20.87c0 2.047-1.051 2.502-2.259 2.558a.31.31 0 00-.287.316v.154h8.59v-.154a.31.31 0 00-.287-.316m35.174 0c-1.214-.056-2.294-.51-2.294-2.558V20.804a.32.32 0 00-.137-.266l-2.974-2.027c-.234-.159-.522.068-.456.352.079.337.104.713.104 1.2v20.87c0 2.047-1.05 2.502-2.259 2.558a.31.31 0 00-.288.316v.154h8.591v-.154a.31.31 0 00-.288-.316m-19.235-1.173V21.916l.005-3.183a.31.31 0 00-.303-.318h-2.959a.31.31 0 00-.303.318v22.69h.029v.151c0 .109.052.21.14.268l3.045 2.04c.234.156.52-.07.454-.354-.081-.339-.108-.72-.108-1.21M67.78 18.564l-.004-.144-.01.166a.315.315 0 00-.036.126l-.389 6.312-.051.785a.31.31 0 00.301.339h.423l-.009-.273c.002-.006.005-.012.006-.02.45-4.529 2.86-6.457 4.456-7.119v-.321h-4.435a.296.296 0 00-.251.149m20.324.148c0-.007-.005-.013-.005-.021l-.018-.272-.005.182a.303.303 0 00-.275-.186h-4.435v.286c1.661.662 4.234 2.551 4.47 7.14a.31.31 0 00.045.143l-.004.164h.388a.312.312 0 00.302-.34l-.41-6.226-.053-.87z" style="fill: rgb(0, 0, 0);"/>
    <path d="M.5.873v26.183c.001 4.93 1.295 9.502 3.241 13.602L43.7.873H.5z" stroke-width="0.651" style="stroke: rgb(0, 0, 0);"/>
    <path d="M43.697 6.29L5.635 44.189c6.377 10.636 16.426 17.286 16.426 17.286h.077s21.56-14.256 21.56-34.42h-.007l.006-20.763zm90.665 55.307h.834V.75h-.834zm6.301-1.655h-1.687v1.295h2.006v.697h-2.919v-4.532h2.913v.7h-2v1.14h1.687zm4.639 1.992h-.913l-1.835-3.056-.018.002v3.054h-.913v-4.532h.913l1.834 3.054.02-.004v-3.05h.912zm3.21-1.183a.528.528 0 00-.183-.42c-.122-.105-.335-.205-.642-.299-.526-.157-.923-.342-1.196-.556-.272-.215-.407-.506-.407-.876s.153-.674.459-.91c.307-.235.697-.353 1.172-.353.504 0 .91.126 1.217.38.307.253.457.585.446.996l-.006.018h-.885c0-.226-.068-.4-.207-.52-.137-.122-.33-.183-.578-.183-.224 0-.399.054-.522.162a.526.526 0 00-.184.414c0 .153.066.28.2.378.134.099.364.203.691.313.5.141.882.326 1.143.553.263.227.395.525.395.898 0 .387-.152.693-.457.918-.304.223-.706.335-1.206.335-.49 0-.91-.121-1.261-.364-.351-.243-.522-.604-.511-1.086l.006-.019h.885c0 .268.078.465.237.591.158.128.373.19.644.19.244 0 .43-.05.558-.152a.496.496 0 00.192-.408m4.185-.809h-1.687v1.295h2.006v.697h-2.919v-4.532h2.913v.7h-2v1.14h1.687zm1.023 1.992h.912v-4.532h-.912zm5.304-.619c-.142.184-.353.345-.634.48-.282.137-.644.205-1.088.205-.55 0-1.001-.173-1.351-.518-.35-.343-.524-.79-.524-1.34v-.946c0-.548.17-.994.509-1.34.34-.347.776-.519 1.31-.519.556 0 .981.132 1.278.394.296.262.44.612.428 1.05l-.006.019h-.86c0-.24-.07-.428-.21-.562-.138-.134-.341-.2-.609-.2a.818.818 0 00-.675.322c-.17.215-.256.49-.256.829v.952c0 .343.088.622.262.837.176.217.41.324.704.324a1.6 1.6 0 00.513-.066.763.763 0 00.293-.164v-.877h-.875v-.63h1.791v1.75zm4.454.619h-.912l-1.836-3.056-.018.002v3.054h-.913v-4.532h.913l1.835 3.054.019-.004v-3.05h.912zm3.439-1.992h-1.688v1.295h2.007v.697h-2.92v-4.532h2.914v.7h-2v1.14h1.687zm3.313.8h.02l1.168-3.34h1.191v4.532h-.912V58.84l-.02-.004-1.125 3.097h-.62l-1.124-3.103-.02.004v3.099h-.912v-4.531h1.198zm5.817-.8h-1.687v1.295h2.006v.697h-2.92v-4.532h2.914v.7h-2v1.14h1.687zm4.639 1.992h-.913l-1.835-3.056-.018.002v3.054h-.913v-4.532h.913l1.834 3.054.02-.004v-3.05h.912zm3.92-3.831h-1.301v3.831h-.913v-3.831h-1.281v-.7h3.495zm3.654 2.648a.528.528 0 00-.183-.42c-.122-.105-.336-.205-.643-.299-.525-.157-.923-.342-1.195-.556-.272-.215-.407-.506-.407-.876s.152-.674.458-.91c.307-.235.698-.353 1.173-.353.504 0 .91.126 1.217.38.307.253.456.585.446.996l-.006.018h-.885c0-.226-.069-.4-.207-.52-.137-.122-.33-.183-.578-.183-.225 0-.399.054-.522.162a.526.526 0 00-.184.414c0 .153.066.28.2.378.133.099.364.203.691.313.5.141.881.326 1.143.553.263.227.394.525.394.898 0 .387-.152.693-.456.918-.305.223-.706.335-1.206.335-.49 0-.91-.121-1.262-.364-.35-.243-.522-.604-.51-1.086l.005-.019h.885c0 .268.079.465.238.591.157.128.372.19.644.19.243 0 .43-.05.557-.152a.496.496 0 00.193-.408m5.192-3.348v2.965c0 .51-.17.91-.51 1.2-.34.287-.78.432-1.322.432-.54 0-.977-.145-1.314-.433-.337-.289-.505-.688-.505-1.199v-2.965h.916v2.965c0 .304.08.534.243.695.163.16.382.239.66.239.281 0 .505-.08.668-.24.165-.16.248-.39.248-.694v-2.965h.916zm1.703 2.187h.829c.254 0 .447-.068.578-.206a.735.735 0 00.197-.528.77.77 0 00-.196-.54c-.13-.142-.323-.213-.579-.213h-.829v1.488zm0 .701v1.643h-.912v-4.531h1.741c.523 0 .934.133 1.234.398.3.265.45.615.45 1.049 0 .434-.15.782-.45 1.045-.3.264-.71.396-1.234.396h-.829zm4.808-4.164h1.016l.006.019-.866.808h-.779l.623-.827zm.959 3.816h-1.688v1.294h2.007v.698h-2.92v-4.532h2.914v.7h-2v1.14h1.687v.7zm1.873-.521h.647c.257 0 .447-.053.572-.161.124-.108.188-.268.188-.48a.655.655 0 00-.19-.494c-.126-.123-.31-.184-.555-.184h-.662v1.32zm0 .7v1.812h-.913v-4.532h1.575c.519 0 .925.118 1.218.353.292.237.439.565.439.986a.988.988 0 01-.186.602 1.294 1.294 0 01-.543.409c.27.08.463.212.58.396.118.184.178.413.178.685v.333c0 .126.016.258.051.396.035.138.093.24.177.307v.065h-.941c-.084-.067-.138-.176-.162-.33a2.898 2.898 0 01-.035-.445v-.32c0-.226-.062-.402-.187-.528-.124-.125-.3-.188-.526-.188h-.725zm3.229 1.812h.913v-4.532h-.913zm4.416-1.992h-1.687v1.295h2.006v.697h-2.919v-4.532h2.913v.7h-2v1.14h1.687zm4.567-2.539v2.965c0 .51-.17.91-.509 1.2-.34.287-.78.432-1.323.432-.54 0-.977-.145-1.314-.433-.337-.289-.505-.688-.505-1.199v-2.965h.916v2.965c0 .304.081.534.244.695.162.16.382.239.659.239.282 0 .505-.08.669-.24.165-.16.247-.39.247-.694v-2.965h.916zm1.703 2.019h.648c.256 0 .447-.053.572-.161.124-.108.188-.268.188-.48a.655.655 0 00-.19-.494c-.126-.123-.31-.184-.555-.184h-.662v1.32zm0 .7v1.812h-.912v-4.532h1.575c.519 0 .925.118 1.217.353.293.237.44.565.44.986a.988.988 0 01-.186.602 1.287 1.287 0 01-.543.409c.27.08.463.212.58.396.118.184.178.413.178.685v.333c0 .126.016.258.051.396.035.138.093.24.177.307v.065h-.941c-.084-.067-.138-.176-.162-.33a2.898 2.898 0 01-.035-.445v-.32c0-.226-.063-.402-.187-.528-.123-.125-.3-.188-.526-.188h-.725zm5.674-.532h.828c.255 0 .448-.068.579-.206a.735.735 0 00.197-.528.77.77 0 00-.196-.54c-.13-.142-.323-.213-.58-.213h-.828v1.488zm0 .701v1.643h-.912v-4.531h1.74c.523 0 .935.133 1.235.398.3.265.45.615.45 1.049 0 .434-.15.782-.45 1.045-.3.264-.712.396-1.235.396h-.828zm4.079-.869h.647c.256 0 .447-.053.572-.161.125-.108.188-.268.188-.48a.655.655 0 00-.19-.494c-.125-.123-.31-.184-.554-.184h-.663v1.32zm0 .7v1.812h-.912v-4.532h1.575c.518 0 .924.118 1.217.353.293.237.44.565.44.986a.988.988 0 01-.187.602 1.287 1.287 0 01-.542.409c.269.08.462.212.58.396.117.184.177.413.177.685v.333c0 .126.017.258.051.396.035.138.094.24.177.307v.065h-.94c-.085-.067-.138-.176-.162-.33a2.898 2.898 0 01-.036-.445v-.32c0-.226-.062-.402-.186-.528-.123-.125-.3-.188-.527-.188h-.725zm3.229 1.812h.913v-4.532h-.913zm3.367-1.229l.056.248h.019l.052-.239.992-3.312h.962l-1.548 4.532h-.936l-1.544-4.532h.962zm4.163-4.578h1.016l.006.019-.865.808h-.78l.623-.827zm.96 3.816h-1.688v1.294h2.006v.698h-2.919v-4.532h2.913v.7h-2v1.14h1.687v.7z" style="fill: rgb(0, 0, 0);"/>
  </g>
</svg>